<?xml version="1.0" encoding="utf-8"?>
<!-- Svg Vector Icons : http://www.onlinewebfonts.com/icon -->
<!DOCTYPE svg PUBLIC "-//W3C//DTD SVG 1.1//EN" "http://www.w3.org/Graphics/SVG/1.1/DTD/svg11.dtd">
<svg version="1.1" xmlns="http://www.w3.org/2000/svg" xmlns:xlink="http://www.w3.org/1999/xlink" x="0px" y="0px" viewBox="0 0 1000 1000" enable-background="new 0 0 1000 1000" xml:space="preserve">
<metadata> Svg Vector Icons : http://www.onlinewebfonts.com/icon </metadata>
<g><path d="M589.1,165.4L321.8,544.5h156.4l-22.8,311.8l245.5-378.1H544.5L589.1,165.4z M500,10C229.8,10,10,229.8,10,500s219.8,490,490,490s490-219.8,490-490S770.2,10,500,10z M500,945.5c-246.5,0-445.5-199-445.5-445.5c0-246.5,199-445.5,445.5-445.5c246.5,0,445.5,199,445.5,445.5C945.5,746.5,746.5,945.5,500,945.5z"/></g>
</svg>