<?xml version="1.0" encoding="utf-8"?>
<!-- Svg Vector Icons : http://www.onlinewebfonts.com/icon -->
<!DOCTYPE svg PUBLIC "-//W3C//DTD SVG 1.1//EN" "http://www.w3.org/Graphics/SVG/1.1/DTD/svg11.dtd">
<svg version="1.1" xmlns="http://www.w3.org/2000/svg" xmlns:xlink="http://www.w3.org/1999/xlink" x="0px" y="0px" viewBox="0 0 1000 1000" enable-background="new 0 0 1000 1000" xml:space="preserve">
<metadata> Svg Vector Icons : http://www.onlinewebfonts.com/icon </metadata>
<g><g><path d="M117.1,523.8c-51.9-89.4-12.6-170.4,126.8-222.9c139.4-52.6,249.7-106.3,268.7-168.5c28.5-58.6-34.3-125.7-25-122.2C478.3,6.6,612,101,654.5,186.9c51.9,89.5,12.6,170.5-126.8,223c-139.5,52.5-249.7,106.2-268.8,168.4c-28.4,58.5,34.3,125.6,25,122.1C293.2,704,159.5,609.7,117.1,523.8z M472.3,500.9c-139.4,52.5-178.7,133.6-126.8,223c42.6,85.9,176.2,180.2,166.9,176.6c9.3,3.6-53.4-63.5-24.9-122.2c19.1-62.2,129.3-115.9,268.7-168.4c139.4-52.6,178.7-133.5,126.8-223c-42.5-85.8-176.2-180.2-166.9-176.6c-9.3-3.6,53.4,63.5,25,122.1C722,394.7,611.8,448.4,472.3,500.9z M63.9,912.6V990h872.3v-77.4H63.9z"/></g><g></g><g></g><g></g><g></g><g></g><g></g><g></g><g></g><g></g><g></g><g></g><g></g><g></g><g></g><g></g></g>
</svg>