<?xml version="1.0" encoding="utf-8"?>
<!-- Svg Vector Icons : http://www.onlinewebfonts.com/icon -->
<!DOCTYPE svg PUBLIC "-//W3C//DTD SVG 1.1//EN" "http://www.w3.org/Graphics/SVG/1.1/DTD/svg11.dtd">
<svg version="1.1" xmlns="http://www.w3.org/2000/svg" xmlns:xlink="http://www.w3.org/1999/xlink" x="0px" y="0px" viewBox="0 0 1000 1000" enable-background="new 0 0 1000 1000" xml:space="preserve">
<metadata> Svg Vector Icons : http://www.onlinewebfonts.com/icon </metadata>
<g><g><g><path d="M500,10C229.8,10,10,229.8,10,500c0,270.2,219.8,490,490,490c270.2,0,490-219.8,490-490C990,229.8,770.2,10,500,10z M500,899.1c-220.1,0-399.1-179-399.1-399.1c0-220.1,179-399.1,399.1-399.1c220.1,0,399.1,179,399.1,399.1C899.1,720,720.1,899.1,500,899.1z"/><g><path d="M573.6,716.9c0,0,230.9-101.8,78.3-301.4c0,0-23.5,50.9-78.3,39.1c0,0,97.9-176.1-109.6-199.6c0,0,23.5,109.6-74.4,191.8c-97.9,82.2-66.5,254.4,47,289.6c0,0-15.4-101.8,60.8-191.8C497.4,544.7,526.7,693.4,573.6,716.9z"/><path d="M436.7,738C436.6,738,436.6,738,436.7,738c-0.2,0-0.4,0-0.5-0.1c-52.1-16.2-90.5-62-102.8-122.6c-13.1-65.1,8-130.2,55.2-169.8c95.9-80.6,74.1-189.1,73.8-190.2c-0.1-0.5,0-1,0.4-1.4c0.3-0.4,0.9-0.6,1.4-0.5c63,7.1,104.4,29.1,123,65.2c27.7,53.7-4.9,122.5-11.2,134.9c4.6,0.9,9.2,1.3,13.6,1.3c0,0,0,0,0,0c41.9,0,60.6-39.6,60.8-40c0.2-0.5,0.7-0.9,1.3-0.9c0.6-0.1,1.1,0.2,1.5,0.6c45.2,59.1,61.3,115.6,47.9,167.9c-22.9,89.3-125.8,135.5-126.8,136c-0.4,0.2-0.9,0.2-1.4,0c-42.9-21.5-71.7-147.1-76.4-170.1c-70,84.9-59.3,180.4-58.3,187.5c0.1,0.2,0.1,0.4,0.1,0.7C438.3,737.3,437.6,738,436.7,738z M466,256.8c2.6,16,14.5,115.7-75.3,191.2c-46.3,38.9-67.1,102.8-54.2,166.7c11.8,58.5,48.4,103,98.2,119.4c-1.7-16.4-7.7-108.8,61.5-190.5c0.4-0.5,1-0.7,1.6-0.5c0.6,0.2,1.1,0.6,1.2,1.3c0.1,0.4,7.4,37.4,20.6,77.5c16.9,51.3,35.6,83.5,54.1,93.3c9-4.2,102.8-49.6,124.3-133.6c13-50.6-2.4-105.5-45.8-163.1c-4.9,8.8-24.7,39.5-62.5,39.5c0,0,0,0,0,0c-5.3,0-10.8-0.6-16.4-1.8c-0.5-0.1-0.9-0.4-1.1-0.9c-0.2-0.5-0.2-1,0.1-1.4c0.4-0.8,41.7-76.4,12.1-133.8C566.5,285.4,526.7,264.1,466,256.8z"/></g></g></g><g></g><g></g><g></g><g></g><g></g><g></g><g></g><g></g><g></g><g></g><g></g><g></g><g></g><g></g><g></g></g>
</svg>