<?xml version="1.0" encoding="utf-8"?>
<!-- Svg Vector Icons : http://www.onlinewebfonts.com/icon -->
<!DOCTYPE svg PUBLIC "-//W3C//DTD SVG 1.1//EN" "http://www.w3.org/Graphics/SVG/1.1/DTD/svg11.dtd">
<svg version="1.1" xmlns="http://www.w3.org/2000/svg" xmlns:xlink="http://www.w3.org/1999/xlink" x="0px" y="0px" viewBox="0 0 1000 1000" enable-background="new 0 0 1000 1000" xml:space="preserve">
<metadata> Svg Vector Icons : http://www.onlinewebfonts.com/icon </metadata>
<g><path d="M572.3,766.3c-0.9,0.6-1.3,1.8-0.8,2.7c0.5,1,1.6,1.4,2.6,1.1c40.2-12.7,92.8-37.9,115.8-86c16.9-35.4,14.8-78-6.4-126.3c-63.8-132.2-22.6-174.4-22.2-174.9c0.7-0.7,0.8-1.8,0.3-2.6c-0.6-0.7-1.7-1.2-2.6-0.7c-0.9,0.4-89.7,35.8-78.6,114.1c-24.3-20.9-138.1-128.3-68.5-254.5c0.5-0.8,0.3-1.9-0.4-2.4c-0.5-0.6-1.6-0.9-2.4-0.6c-1.5,0.6-37.1,15.1-65.3,51.8c-26.2,33.7-50.4,93.4-17.8,185.8c12,43.4-10.5,78.7-22.5,93.6c2.9-10.3,6.6-27.7,6.1-47.7c-1-29.4-12-70-59.4-96.1c-0.7-0.5-1.7-0.4-2.4,0c-0.8,0.6-1.1,1.3-0.9,2.1c0.2,0.9,17.9,78.1-13.2,113.7c-26.8,30.9-53,84.5-38.8,134.1c11.9,41.6,49.1,73.2,110.6,94.3c15.8,4.6,30.9,8.1,47.6,11c1.1,0.3,2.2-0.3,2.5-1.3c0.3-1.1-0.2-2.3-1.2-2.6c-31.5-13.2-64.1-40.3-39.9-95.7c23.1-47.8,18.9-72.4,14.3-82.8c11.9,6.4,35.6,23.1,29.7,52.3c-0.1,0.8,0.2,1.7,1.1,2.2c0.8,0.5,1.8,0.4,2.5-0.2c0.8-0.5,72-56.5,39.6-125.1c16,8.9,58.2,39.5,33.3,110.1c-8.2,30.3,14.3,52,15.3,53c0.8,0.6,1.9,0.9,2.8,0.3c0.8-0.5,1.2-1.6,0.8-2.5c-0.7-1.9-17.6-45.3,19-69.3c-1.9,11.2-5,38.8,8.1,53.7c11.7,13.6,23.1,35.8,19.6,57.5C598,743.4,588.6,756.2,572.3,766.3z M98.6,10v980h802.8V10H98.6z M850.3,935.9H149.7V58.6h700.6L850.3,935.9L850.3,935.9z M806,809.5H194V834H806V809.5z M806,877.5H194v25.9H806V877.5z M806,177.8H194v24.5H806V177.8z M806,106.3H194v27.9H806V106.3z"/></g>
</svg>