<?xml version="1.0" encoding="utf-8"?>
<!-- Svg Vector Icons : http://www.onlinewebfonts.com/icon -->
<!DOCTYPE svg PUBLIC "-//W3C//DTD SVG 1.1//EN" "http://www.w3.org/Graphics/SVG/1.1/DTD/svg11.dtd">
<svg version="1.1" xmlns="http://www.w3.org/2000/svg" xmlns:xlink="http://www.w3.org/1999/xlink" x="0px" y="0px" viewBox="0 0 1000 1000" enable-background="new 0 0 1000 1000" xml:space="preserve">
<metadata> Svg Vector Icons : http://www.onlinewebfonts.com/icon </metadata>
<g><g transform="translate(0.000000,511.000000) scale(0.100000,-0.100000)"><path d="M3404.3,4962.3c-83.8-73.8-73.8-147.7,45.9-319.3c325.2-466.9,303.3-704.4-115.7-1291c-151.7-213.5-219.5-349.2-267.4-528.8c-37.9-151.6-37.9-407.1,0-556.7c85.8-329.2,399.1-730.3,568.7-730.3c71.8,0,157.6,57.9,173.6,115.7c23.9,89.8,6,127.7-117.7,261.4c-167.6,179.6-259.4,375.1-271.4,580.7c-14,245.4,33.9,371.1,283.3,744.3c127.7,191.6,233.5,377.1,273.4,476.9c61.9,153.6,65.8,183.6,67.8,395.1c0,219.5-4,235.4-65.8,367.1c-77.8,165.6-273.4,460.9-331.2,502.8C3583.9,5024.2,3466.2,5016.2,3404.3,4962.3z"/><path d="M4851,4950.4c-31.9-31.9-57.9-79.8-57.9-103.8c0-23.9,61.9-137.7,139.7-249.4c139.7-207.5,199.5-355.2,199.5-484.9c0-181.6-115.7-441-325.2-730.3c-243.4-339.2-321.3-548.7-319.3-848c2-313.3,121.7-590.6,363.2-842.1c109.7-115.7,143.7-139.7,211.5-149.6c67.9-8,91.8-2,145.7,43.9c103.8,87.8,91.8,159.6-59.9,325.2c-153.6,167.6-229.5,301.3-265.4,470.9c-53.9,265.4,16,494.9,257.4,832.1c157.6,217.5,299.3,496.8,343.2,676.4c43.9,175.6,29.9,389.1-39.9,554.7c-53.9,137.7-251.4,445-329.2,518.8C5042.5,5030.2,4926.8,5024.2,4851,4950.4z"/><path d="M6301.6,4958.3c-79.8-73.8-67.8-139.7,55.9-321.3c137.7-205.5,187.6-305.3,211.5-427c39.9-207.5-63.8-488.9-303.3-818.1c-171.6-239.4-249.4-387.1-295.3-568.7c-91.8-361.2-10-714.3,247.4-1041.6c191.5-245.4,335.2-303.3,452.9-187.6c83.8,85.8,71.8,183.6-35.9,267.4c-71.8,57.9-217.5,273.4-265.4,391.1c-59.9,153.6-71.8,323.3-31.9,476.9c39.9,157.6,89.8,255.4,231.5,452.9c397.1,548.7,482.9,929.8,299.3,1320.9c-69.8,151.6-247.4,413-315.3,466.9C6483.2,5024.2,6369.5,5020.2,6301.6,4958.3z"/><path d="M1726.2,556.6c-103.8-51.9-217.5-173.6-269.4-293.3c-23.9-51.9-49.9-177.6-61.8-295.3l-21.9-207.5H986c-423,0-464.9-10-530.8-119.7c-45.9-77.8-41.9-271.4,6-351.2c67.8-111.7,133.7-127.7,548.7-127.7H1381v-1620.2c0-903.9,10-1686.1,20-1767.9c23.9-179.6,79.8-309.3,175.6-411.1c113.7-119.7,201.5-151.6,419-151.6c261.4,0,375.1,55.9,492.9,241.4c111.7,173.6,109.7,139.7,109.7,1997.4v1712h149.7h147.7l6-1740l6-1742l45.9-111.7c55.9-141.7,159.6-263.4,269.4-315.3c69.8-33.9,123.7-41.9,285.3-41.9c183.6,0,205.5,4,301.3,59.9c113.7,65.8,199.5,175.6,257.4,329.2c35.9,93.8,37.9,195.5,43.9,1831.7l6,1730h147.6H4414l4-1759.9c6-1751.9,6-1761.9,47.9-1853.7c57.9-123.7,179.6-255.4,277.4-299.3c111.7-51.9,427-51.9,538.7,0c121.7,53.9,241.5,203.5,289.3,357.2c37.9,123.7,39.9,185.6,39.9,1841.7v1714h149.6h147.7l6-1740l6-1742l45.9-111.7c55.9-141.7,159.6-263.4,269.4-315.3c69.8-33.9,123.7-41.9,285.3-41.9c183.6,0,205.5,4,303.3,59.9c69.8,41.9,125.7,95.8,173.6,165.6c131.7,201.5,129.7,157.6,129.7,2033.3v1692.1h149.7H7427l4-1759.9l6-1761.9l43.9-93.8c57.9-123.7,177.6-253.4,275.4-297.3c111.7-51.9,427-51.9,538.8,0c97.8,43.9,217.5,173.6,275.4,297.3l43.9,93.8l6,1761.9l4,1759.9h365.1c397.1,0,458.9,14,538.8,121.7c83.8,115.7,55.9,345.2-51.9,425c-51.9,37.9-89.8,41.9-449,51.9l-393.1,10l-10,179.6c-14,225.5-59.9,361.2-161.6,474.9c-117.7,135.7-213.5,173.6-433,173.6c-201.5,0-275.4-21.9-379.1-109.7C7506.8,369,7447,223.4,7429-40l-12-189.6l-143.7-6l-145.7-6v117.7c0,245.4-65.8,441-193.6,572.7c-111.7,115.7-205.5,149.6-417,149.6c-161.6,0-195.6-6-289.3-55.9c-197.5-101.8-317.3-349.2-317.3-648.5v-135.7l-143.7,6l-145.7,6l-12,189.6c-18,305.3-141.7,520.8-349.2,608.6c-93.8,39.9-403.1,39.9-494.9,2c-105.8-43.9-225.5-165.6-283.3-287.3C4437.9,191.4,4424,129.6,4416-30l-12-199.5l-143.7-6l-145.7-6v107.8c0,333.2-131.7,596.6-349.2,694.4c-57.9,27.9-129.7,37.9-261.4,37.9c-161.6,0-195.5-6-289.3-55.9c-197.5-101.8-317.3-349.2-317.3-648.5v-135.7l-143.7,6l-145.7,6l-12,189.6c-16,297.3-127.7,498.8-327.2,590.6C2131.3,616.4,1851.9,618.4,1726.2,556.6z"/></g></g>
</svg>