<?xml version="1.0" encoding="utf-8"?>
<!-- Svg Vector Icons : http://www.onlinewebfonts.com/icon -->
<!DOCTYPE svg PUBLIC "-//W3C//DTD SVG 1.1//EN" "http://www.w3.org/Graphics/SVG/1.1/DTD/svg11.dtd">
<svg version="1.1" xmlns="http://www.w3.org/2000/svg" xmlns:xlink="http://www.w3.org/1999/xlink" x="0px" y="0px" viewBox="0 0 1000 1000" enable-background="new 0 0 1000 1000" xml:space="preserve">
<metadata> Svg Vector Icons : http://www.onlinewebfonts.com/icon </metadata>
<g><g transform="translate(0.000000,511.000000) scale(0.100000,-0.100000)"><path d="M7470,4958.2c-71.2-71.2-79.9-138.2-71.2-610.9c6.5-464.1,19.4-505.1,166.2-554.8c116.6-38.9,157.6-114.4,174.8-319.5c6.5-99.3,23.8-198.6,36.7-222.3c47.5-84.2,136-149,228.8-159.7l90.7-13l-2.1-345.4c-2.2-395-28.1-541.8-127.4-759.9c-177-386.4-511.6-664.9-928.3-772.8c-235.3-60.4-226.7-69.1-226.7,205.1c0,174.9-8.6,256.9-34.5,304.4c-66.9,131.7-2.2,127.4-2031.4,127.4c-1232.6,0-1880.3-8.6-1934.2-23.8c-56.1-15.1-95-45.3-123.1-90.7c-41-64.8-43.2-114.4-43.2-729.7V332L2425,319C1583.1,271.5,834-302.7,557.6-1110c-332.4-973.6,75.6-2033.6,980.1-2549.5l168.4-95h-427.4c-451.2,0-526.7-12.9-576.4-105.8c-28.1-56.1-28.1-658.4,2.2-764.2c15.1-54,45.3-97.1,90.7-125.2c62.6-38.9,101.5-43.1,446.9-36.7c362.7,6.5,382.1,8.6,485.7,64.7c60.4,30.2,190,127.4,291.4,213.7c321.7,274.2,23.7,246.1,2676.8,252.6c2709.2,6.5,2452.3,30.2,2784.8-254.7c304.4-259.1,328.1-267.7,762-276.3c563.4-13,554.8-19.5,554.8,513.8c-2.1,533.2,15.1,518.1-587.2,518.1h-416.7l142.5,82c557,326,898,762,1060,1362.2c64.8,239.6,66.9,783.6,0,1021.1c-107.9,395-291.4,716.7-565.6,990.8C8048.5,83.7,7586.5,291,7053.3,319L6809.4,332l6.5,185.7l6.5,185.7l133.8,15.1c572.1,62.6,1131.2,462,1398.9,999.5c153.2,308.7,187.8,470.6,198.6,956.3l10.8,414.5h69.1c86.4,0,196.4,66.9,235.3,144.6c23.8,43.2,34.6,159.7,38.8,410.2c4.3,200.8,17.3,358.3,30.2,371.3c15.1,15.1,97.1-317.3,256.9-1055.6l235.3-1079.4l56.1,15.1c30.2,6.5,62.6,17.3,69.1,25.9c8.6,6.5-12.9,276.3-45.3,600.1c-51.8,492.2-79.9,680-183.5,1154.9c-114.4,520.2-123.1,574.2-99.3,671.4c51.8,222.4,19.4,526.7-64.8,617.4c-41,45.3-60.4,45.3-841.9,45.3h-798.7L7470,4958.2z M5516.3-581.2c183.5-54,418.8-194.3,427.4-256.9c8.7-54-170.5-358.3-222.3-377.8c-17.3-6.5-123,36.7-237.5,95c-170.6,90.7-224.5,107.9-321.7,107.9c-142.5,0-228.8-64.8-228.8-172.7c0-125.2,66.9-183.5,416.6-354c479.2-235.3,636.8-410.2,658.4-736.1c21.6-351.9-226.7-656.3-604.4-744.8c-220.2-49.6-548.3-6.5-781.5,105.8c-125.2,60.4-250.4,157.6-250.4,194.3c0,10.8,45.3,97.1,99.3,194.3c69.1,120.9,112.2,174.9,140.3,174.9c21.6,0,84.2-28.1,140.3-64.8c235.3-149,483.6-177,593.7-66.9c103.6,103.6,75.5,254.7-66.9,364.8c-30.2,21.6-168.4,95-308.7,161.9c-431.7,209.4-615.2,446.9-591.5,770.7C4413.2-676.2,4920.5-408.5,5516.3-581.2z M3696.5-633c157.6-73.4,330.3-243.9,401.5-395c38.9-84.2,47.5-142.5,47.5-308.7c0-181.3-6.5-220.2-60.4-328.1c-34.5-69.1-103.6-168.4-157.6-220.2c-51.8-54-151.1-123-220.2-157.6c-112.3-56.1-146.8-60.4-408-66.9l-287.1-8.6l-4.3-433.9l-6.5-436.1h-259.1h-259l-6.5,1187.3c-2.2,654.1,0,1200.3,6.5,1215.4c8.6,23.8,116.6,28,544,21.6l535.4-6.5L3696.5-633z M6984.3-600.6c25.9-51.8,30.2-2329.3,4.3-2372.5c-15.1-19.4-84.2-25.9-276.3-21.6l-256.9,6.5l-6.5,1196c-4.3,943.4,0,1200.3,21.6,1215.4c15.1,8.6,131.7,17.3,259.1,17.3C6936.8-559.6,6962.7-563.9,6984.3-600.6z"/><path d="M3012.2-1347.5v-269.8l179.2,2.1c222.4,0,313,30.2,375.6,125.2c86.3,129.5,56.1,287.1-71.3,371.3c-51.8,32.4-101.5,41-272,41h-211.6V-1347.5z"/></g></g>
</svg>