<?xml version="1.0" encoding="utf-8"?>
<!-- Svg Vector Icons : http://www.onlinewebfonts.com/icon -->
<!DOCTYPE svg PUBLIC "-//W3C//DTD SVG 1.1//EN" "http://www.w3.org/Graphics/SVG/1.1/DTD/svg11.dtd">
<svg version="1.1" xmlns="http://www.w3.org/2000/svg" xmlns:xlink="http://www.w3.org/1999/xlink" x="0px" y="0px" viewBox="0 0 1000 1000" enable-background="new 0 0 1000 1000" xml:space="preserve">
<metadata> Svg Vector Icons : http://www.onlinewebfonts.com/icon </metadata>
<g><g transform="translate(0.000000,511.000000) scale(0.100000,-0.100000)"><path d="M847.6,4526.9v-483.1h736.1h736.2v-494.6v-494.6H2803h483.1v494.6v494.6h736.1h736.2v483.1V5010H2803H847.6V4526.9z"/><path d="M7219.9,3287v-250.8l-407.2-9.2c-370.4-9.2-423.3-16.1-563.6-69c-441.7-165.6-740.8-467-913.3-911c-57.5-151.8-59.8-161-66.7-892.6c-9.2-842,2.3-929.4,156.4-1226.2C5651-506.5,6049-784.9,6541.3-856.2c89.7-11.5,526.8-23,973.1-23c752.2,0,816.7-2.3,897.2-43.7c110.4-57.5,200.2-151.8,243.9-260c48.3-115,52.9-743,6.9-853.5c-46-108.1-147.2-218.5-248.4-269.2c-85.1-43.7-149.5-46-2125.6-46H4252.3v2266c0,2199.2-2.3,2270.6-43.7,2355.7c-59.8,112.7-186.3,223.1-294.5,255.4c-59.8,18.4-427.9,23-1170.9,18.4L1662,2537l-96.6-64.4c-52.9-34.5-124.2-105.8-158.7-158.7l-64.4-96.6l-6.9-3020.5l-4.6-3020.5H836.1H341.5v-483.1V-4790h2450h2450v483.1v483.1h-494.6h-494.6v253v253.1h2065.8c2293.6,0,2208.4-4.6,2535.1,156.4c253,124.2,513,386.5,641.8,648.7c131.1,269.2,163.3,441.7,163.3,897.2c0,457.8-32.2,628-163.3,897.2c-165.6,335.9-478.5,607.3-848.9,738.4C8501.3,73.2,8466.8,75.5,7542,87l-954.7,11.5l-110.4,64.4c-59.8,34.5-138,108.1-172.5,158.7l-62.1,96.6v669.4v671.7l62.1,89.7c34.5,48.3,101.2,115,149.5,147.2c78.2,52.9,105.8,57.5,425.6,64.4l340.4,6.9v-241.5v-243.8H7703h483.1V2560v977.7H7703h-483.1V3287z"/></g></g>
</svg>